<?xml version="1.0" standalone="no"?>
<!DOCTYPE svg PUBLIC "-//W3C//DTD SVG 20010904//EN"
 "http://www.w3.org/TR/2001/REC-SVG-20010904/DTD/svg10.dtd">
<svg version="1.0" xmlns="http://www.w3.org/2000/svg"
 width="260.000000pt" height="260.000000pt" viewBox="0 0 260.000000 260.000000"
 preserveAspectRatio="xMidYMid meet">
<metadata>
Created by potrace 1.11, written by Peter Selinger 2001-2013
</metadata>
<g transform="translate(0.000000,260.000000) scale(0.100000,-0.100000)"
fill="#000000" stroke="none">
<path d="M0 1300 l0 -1300 1300 0 1300 0 0 1300 0 1300 -1300 0 -1300 0 0
-1300z m2428 -2 l2 -1128 -1130 0 -1130 0 0 1130 0 1130 1128 -2 1127 -3 3
-1127z"/>
<path d="M820 2005 l0 -65 65 0 65 0 0 -227 0 -228 -26 33 c-109 138 -375 130
-520 -16 -97 -98 -144 -243 -144 -440 1 -202 52 -345 160 -445 80 -74 145 -99
265 -99 108 -1 176 23 229 83 l35 38 3 -47 3 -47 228 -3 227 -2 0 65 0 65 -65
0 -65 0 -2 698 -3 697 -227 3 -228 2 0 -65z m47 -581 c59 -38 83 -144 83 -359
0 -244 -25 -331 -106 -367 -89 -39 -176 6 -203 104 -17 63 -25 338 -13 440 16
123 50 183 117 201 30 8 97 -2 122 -19z"/>
<path d="M1888 2055 c-114 -29 -187 -87 -230 -180 -18 -40 -23 -73 -26 -167
l-4 -118 -69 0 -69 0 0 -65 0 -64 68 -3 67 -3 0 -390 0 -390 -67 -3 -68 -3 0
-49 c0 -87 -27 -80 326 -80 l314 0 0 65 0 64 -87 3 -88 3 0 390 0 390 118 3
118 3 -3 62 -3 62 -115 5 -115 5 1 113 c3 177 34 232 132 232 51 0 78 -22 101
-85 l19 -50 56 -3 56 -3 0 110 c0 95 -2 112 -17 119 -66 35 -321 51 -415 27z"/>
</g>
</svg>
