<?xml version="1.0" standalone="no"?>
<!DOCTYPE svg PUBLIC "-//W3C//DTD SVG 20010904//EN"
 "http://www.w3.org/TR/2001/REC-SVG-20010904/DTD/svg10.dtd">
<svg version="1.0" xmlns="http://www.w3.org/2000/svg"
 width="512.000000pt" height="512.000000pt" viewBox="0 0 512.000000 512.000000"
 preserveAspectRatio="xMidYMid meet">
<metadata>
Created by potrace 1.11, written by Peter Selinger 2001-2013
</metadata>
<g transform="translate(0.000000,512.000000) scale(0.100000,-0.100000)"
fill="#000000" stroke="none">
<path d="M1637 4697 c-22 -20 -38 -46 -42 -67 -9 -50 -2 -572 8 -592 9 -18 2
-21 -63 -32 -45 -7 -146 -35 -183 -51 -48 -20 -54 -19 -54 8 0 13 -35 84 -78
158 -43 74 -86 150 -97 169 -123 214 -129 222 -203 226 -64 4 -106 -34 -112
-101 -5 -49 -2 -55 130 -285 74 -129 149 -249 165 -266 l30 -30 -33 -22 c-39
-27 -135 -124 -169 -170 -24 -33 -25 -33 -35 -13 -10 18 -80 63 -231 149 -19
11 -86 49 -148 85 -62 36 -122 69 -135 73 -105 35 -195 -78 -138 -172 17 -28
111 -87 402 -252 19 -11 50 -29 70 -41 19 -11 48 -22 62 -23 15 -1 27 -5 27
-9 0 -4 -11 -36 -25 -73 -14 -36 -23 -66 -20 -66 2 0 0 -12 -6 -27 -13 -34
-18 -57 -21 -101 -2 -29 -5 -32 -23 -26 -31 11 -565 14 -606 4 -76 -21 -111
-106 -70 -173 35 -56 47 -58 372 -55 162 2 300 5 308 8 9 3 15 -5 18 -24 9
-63 42 -185 61 -229 l20 -45 -34 -5 c-40 -7 -477 -257 -518 -297 -39 -38 -47
-104 -16 -143 30 -38 77 -60 114 -54 17 3 114 53 216 112 102 59 208 120 236
136 60 34 88 63 101 104 7 22 28 40 84 72 41 24 81 47 89 53 8 5 43 25 77 45
64 37 69 48 37 85 -7 8 -24 44 -38 80 -112 282 11 608 279 743 145 72 323 82
475 26 101 -37 217 -129 279 -221 18 -27 34 -48 37 -48 3 0 68 41 146 91 115
74 142 88 151 76 23 -27 62 -43 97 -40 45 4 501 264 535 305 14 16 25 37 26
46 4 61 -19 113 -58 131 -60 27 -88 17 -333 -124 -129 -75 -247 -148 -261
-164 l-26 -28 -24 30 c-40 51 -149 158 -180 176 l-29 18 28 20 c17 13 84 118
168 264 120 210 139 248 138 284 -1 52 -28 91 -72 106 -37 12 -87 6 -115 -15
-14 -11 -114 -174 -200 -326 -10 -19 -37 -65 -58 -102 -22 -37 -42 -81 -45
-98 -4 -16 -9 -30 -13 -30 -3 0 -31 9 -61 21 -30 11 -93 29 -140 40 -97 21
-97 21 -90 34 3 6 6 143 8 305 3 266 1 298 -14 328 -37 69 -120 83 -177 29z"/>
<path d="M3065 3409 c-234 -48 -417 -142 -584 -301 -67 -63 -124 -131 -179
-213 l-41 -61 -128 2 c-70 1 -153 -2 -183 -7 -378 -68 -671 -325 -785 -690
l-26 -86 -87 -6 c-186 -12 -367 -100 -503 -243 -291 -307 -286 -782 11 -1085
135 -137 277 -209 465 -235 66 -9 3082 -9 3160 0 334 39 629 248 774 549 73
153 100 276 96 452 -4 195 -57 366 -166 529 -40 59 -221 246 -239 246 -5 0
-15 7 -23 15 -8 8 -41 28 -73 44 -86 44 -92 50 -99 106 -41 329 -265 663 -560
836 -106 63 -187 98 -296 127 -112 31 -132 34 -294 37 -117 2 -170 -1 -240
-16z m408 -395 c303 -78 527 -314 586 -614 14 -72 16 -137 7 -237 l-8 -82 104
-31 c127 -38 169 -55 233 -96 208 -132 310 -385 255 -628 -36 -156 -163 -316
-310 -389 -142 -70 -52 -67 -1744 -67 -1636 0 -1570 -2 -1661 49 -66 36 -131
106 -168 181 -30 60 -32 72 -32 165 0 88 3 107 27 158 86 183 270 269 463 218
125 -34 219 -60 268 -75 50 -15 54 -13 52 19 -3 32 -15 145 -22 205 -15 135 1
220 63 340 94 181 290 306 491 314 84 3 142 -7 287 -53 54 -17 104 -31 110
-31 6 0 24 33 40 73 87 216 160 329 278 426 101 84 245 146 403 174 45 8 221
-4 278 -19z"/>
</g>
</svg>
